The Rookie (2002) [BDRip720p][Nautilus-BT]
Join www.nautilus-bt.org

[img]http://img839.imageshack.us/img839/7733/3cb0e756f619697c4cd61fb.jpg[/img]

Link IMDb : http://www.imdb.com/title/tt0265662/

A Texas baseball coach makes the major league after agreeing to try out if his high school team made the playoffs.


Titolo italiano : Un sogno una vittoria
Titolo originale : The Rookie
Anno : 2002
Genere : drammatico - biografico - sportivo
Paese : USA
Sceneggiatura : Mike Rich
Regia : John Lee Hancock
Scenografia : Barry Robison


Lingue : Italiano - Inglese
Sottotitoli : Italiano - Inglese
Sottotitoli per non udenti : Inglese
Cartelli : Italiano
Capitoli : si


[img]http://img375.imageshack.us/img375/6439/rookiequantanalyzer.png[/img]

General
Complete name                    : I:\Un sogno una vittoria - The Rookie (2002) [BDRip720p Ita-Eng] by Pitt@Sk8.mkv
Format                           : Matroska
File size                        : 4.38 GiB
Duration                         : 2h 8mn
Overall bit rate                 : 4 892 Kbps
Encoded date                     : UTC 2011-01-08 14:06:52
Writing application              : mkvmerge v4.0.0 ('The Stars were mine') built on Jun  6 2010 16:18:42
Writing library                  : libebml v1.0.0 + libmatroska v1.0.0

Video
ID                               : 1
Format                           : AVC
Format/Info                      : Advanced Video Codec
Format profile                   : High@L4.1
Format settings, CABAC           : Yes
Format settings, ReFrames        : 3 frames
Muxing mode                      : Container profile=Unknown@4.1
Codec ID                         : V_MPEG4/ISO/AVC
Duration                         : 2h 8mn
Bit rate mode                    : Variable
Bit rate                         : 3 982 Kbps
Maximum bit rate                 : 48.0 Mbps
Width                            : 1 280 pixels
Height                           : 548 pixels
Display aspect ratio             : 16:9
Frame rate                       : 23.976 fps
Color space                      : YUV
Chroma subsampling               : 4:2:0
Bit depth                        : 8 bits
Scan type                        : Progressive
Bits/(Pixel*Frame)               : 0.237
Stream size                      : 3.49 GiB (80%)
Title                            : BDRip720p by Pitt@Sk8
Writing library                  : x264 core 104 r1713 c276662
Encoding settings                : cabac=1 / ref=3 / deblock=1:0:0 / analyse=0x3:0x133 / me=hex / subme=7 / psy=1 / psy_rd=1.00:0.00 / mixed_ref=1 / me_range=16 / chroma_me=1 / trellis=1 / 8x8dct=1 / cqm=0 / deadzone=21,11 / fast_pskip=1 / chroma_qp_offset=-2 / threads=6 / sliced_threads=0 / slices=4 / nr=0 / decimate=1 / interlaced=0 / constrained_intra=0 / bframes=3 / b_pyramid=1 / b_adapt=1 / b_bias=0 / direct=1 / weightb=1 / open_gop=2 / weightp=2 / keyint=240 / keyint_min=23 / scenecut=40 / intra_refresh=0 / rc_lookahead=40 / rc=2pass / mbtree=1 / bitrate=3982 / ratetol=1.0 / qcomp=0.60 / qpmin=10 / qpmax=51 / qpstep=4 / cplxblur=20.0 / qblur=0.5 / vbv_maxrate=48000 / vbv_bufsize=48000 / ip_ratio=1.40 / aq=1:1.00 / nal_hrd=vbr

Audio #1
ID                               : 2
Format                           : AC-3
Format/Info                      : Audio Coding 3
Mode extension                   : CM (complete main)
Codec ID                         : A_AC3
Duration                         : 2h 8mn
Bit rate mode                    : Constant
Bit rate                         : 448 Kbps
Channel(s)                       : 6 channels
Channel positions                : Front: L C R, Side: L R, LFE
Sampling rate                    : 48.0 KHz
Bit depth                        : 16 bits
Stream size                      : 410 MiB (9%)
Title                            : Italiano AC3 5.1 448 kbps - Pitt@Sk8
Language                         : Italian

Audio #2
ID                               : 3
Format                           : AC-3
Format/Info                      : Audio Coding 3
Mode extension                   : CM (complete main)
Codec ID                         : A_AC3
Duration                         : 2h 8mn
Bit rate mode                    : Constant
Bit rate                         : 448 Kbps
Channel(s)                       : 6 channels
Channel positions                : Front: L C R, Side: L R, LFE
Sampling rate                    : 48.0 KHz
Bit depth                        : 16 bits
Stream size                      : 410 MiB (9%)
Title                            : English AC3 5.1 448 kbps - Pitt@Sk8
Language                         : English

Text #1
ID                               : 4
Format                           : VobSub
Codec ID                         : S_VOBSUB
Codec ID/Info                    : The same subtitle format used on DVDs
Title                            : Cartelli - Italiano
Language                         : Italian

Text #2
ID                               : 5
Format                           : VobSub
Codec ID                         : S_VOBSUB
Codec ID/Info                    : The same subtitle format used on DVDs
Title                            : Sottotitoli - Italiano
Language                         : Italian

Text #3
ID                               : 6
Format                           : VobSub
Codec ID                         : S_VOBSUB
Codec ID/Info                    : The same subtitle format used on DVDs
Title                            : Subtitle English
Language                         : English

Text #4
ID                               : 7
Format                           : VobSub
Codec ID                         : S_VOBSUB
Codec ID/Info                    : The same subtitle format used on DVDs
Title                            : Subtitle English [deaf]
Language                         : English

Menu
00:00:00.000                     : en:The Rookie -01- Pitt@Sk8
00:07:41.294                     : en:The Rookie -02- Pitt@Sk8
00:20:12.086                     : en:The Rookie -03- Pitt@Sk8
00:28:04.933                     : en:The Rookie -04- Pitt@Sk8
00:35:18.116                     : en:The Rookie -05- Pitt@Sk8
00:41:58.808                     : en:The Rookie -06- Pitt@Sk8
01:01:02.075                     : en:The Rookie -07- Pitt@Sk8
01:08:04.914                     : en:The Rookie -08- Pitt@Sk8
01:12:19.085                     : en:The Rookie -09- Pitt@Sk8
01:23:53.445                     : en:The Rookie -10- Pitt@Sk8
01:32:00.181                     : en:The Rookie -11- Pitt@Sk8
01:38:08.716                     : en:The Rookie -12- Pitt@Sk8
01:46:48.068                     : en:The Rookie -13- Pitt@Sk8
01:53:15.789                     : en:The Rookie -14- Pitt@Sk8
01:58:31.104                     : en:The Rookie -15- Pitt@Sk8
02:02:32.220                     : en:The Rookie -16- Pitt@Sk8



[img]http://img814.imageshack.us/img814/1329/unsognounavittoriathero.jpg[/img]

[img]http://img706.imageshack.us/img706/1329/unsognounavittoriathero.jpg[/img]

[img]http://img713.imageshack.us/img713/1329/unsognounavittoriathero.jpg[/img]

[img]http://img808.imageshack.us/img808/1329/unsognounavittoriathero.jpg[/img]

[img]http://img526.imageshack.us/img526/1329/unsognounavittoriathero.jpg[/img]

[img]http://img155.imageshack.us/img155/1329/unsognounavittoriathero.jpg[/img]

Join www.nautilus-bt.org
